<svg id="android" xmlns="http://www.w3.org/2000/svg" xmlns:xlink="http://www.w3.org/1999/xlink" width="100" height="29.508" viewBox="0 0 100 29.508">
  <defs>
    <linearGradient id="linear-gradient" x1="2.472" y1="1.035" x2="2.361" y2="1.005" gradientUnits="objectBoundingBox">
      <stop offset="0" stop-color="#00a0ff"/>
      <stop offset="0.007" stop-color="#00a1ff"/>
      <stop offset="0.26" stop-color="#00beff"/>
      <stop offset="0.512" stop-color="#00d2ff"/>
      <stop offset="0.76" stop-color="#00dfff"/>
      <stop offset="1" stop-color="#00e3ff"/>
    </linearGradient>
    <linearGradient id="linear-gradient-2" x1="1.95" y1="1.879" x2="1.69" y2="1.879" gradientUnits="objectBoundingBox">
      <stop offset="0" stop-color="#ffe000"/>
      <stop offset="0.409" stop-color="#ffbd00"/>
      <stop offset="0.775" stop-color="orange"/>
      <stop offset="1" stop-color="#ff9c00"/>
    </linearGradient>
    <linearGradient id="linear-gradient-3" x1="1.926" y1="0.946" x2="1.835" y2="0.793" gradientUnits="objectBoundingBox">
      <stop offset="0" stop-color="#ff3a44"/>
      <stop offset="1" stop-color="#c31162"/>
    </linearGradient>
    <linearGradient id="linear-gradient-4" x1="1.856" y1="2.093" x2="1.897" y2="2.025" gradientUnits="objectBoundingBox">
      <stop offset="0" stop-color="#32a071"/>
      <stop offset="0.068" stop-color="#2da771"/>
      <stop offset="0.476" stop-color="#15cf74"/>
      <stop offset="0.801" stop-color="#06e775"/>
      <stop offset="1" stop-color="#00f076"/>
    </linearGradient>
  </defs>
  <path id="Path_1" data-name="Path 1" d="M96.295,29.508H3.705A3.707,3.707,0,0,1,0,25.82V3.689A3.7,3.7,0,0,1,3.705,0h92.59A3.7,3.7,0,0,1,100,3.689V25.82A3.708,3.708,0,0,1,96.295,29.508Z" fill-rule="evenodd"/>
  <path id="Path_3" data-name="Path 3" d="M1676.547,276.07a2.245,2.245,0,0,1-1.676-.694,2.362,2.362,0,0,1-.677-1.692,2.31,2.31,0,0,1,.677-1.691,2.238,2.238,0,0,1,1.674-.694,2.268,2.268,0,0,1,1.676.694,2.449,2.449,0,0,1,0,3.381A2.226,2.226,0,0,1,1676.547,276.07Zm-19.87,0a2.328,2.328,0,0,1-1.683-.684,2.384,2.384,0,0,1,1.683-4.084,2.346,2.346,0,0,1,.94.2,1.9,1.9,0,0,1,.716.511l.044.053-.5.489-.052-.061a1.417,1.417,0,0,0-1.157-.5,1.6,1.6,0,0,0-1.153.471,1.788,1.788,0,0,0,0,2.45,1.686,1.686,0,0,0,2.338,0,1.274,1.274,0,0,0,.339-.767h-1.6v-.688h2.285l.009.063a2.518,2.518,0,0,1,.033.346,2.072,2.072,0,0,1-.57,1.527A2.226,2.226,0,0,1,1656.677,276.07Zm26.419-.1h-.7l-2.158-3.453.018.622v2.829h-.7V271.4h.8l.022.035,2.029,3.253-.018-.62V271.4h.712v4.573Zm-11.844,0h-.714v-3.885H1669.3V271.4h3.188v.688h-1.238v3.885Zm-2.533,0h-.712V271.4h.712Zm-4,0h-.712v-3.885h-1.238V271.4h3.188v.688h-1.238Zm-2.4-.007h-2.73V271.4h2.73v.688H1660.3v1.255h1.819v.681H1660.3v1.255h2.016Zm13.076-1.061a1.576,1.576,0,0,0,1.154.478,1.536,1.536,0,0,0,1.153-.478,1.813,1.813,0,0,0,0-2.436,1.578,1.578,0,0,0-1.153-.478,1.529,1.529,0,0,0-1.152.478,1.816,1.816,0,0,0,0,2.436Z" transform="translate(-1623.867 -266.309)" fill="#fff"/>
  <path id="Path_4" data-name="Path 4" d="M1666.668,686.484a3.138,3.138,0,1,0,3.148,3.138A3.089,3.089,0,0,0,1666.668,686.484Zm0,5.033a1.907,1.907,0,1,1,1.77-1.9A1.816,1.816,0,0,1,1666.668,691.518Zm-6.867-5.033a3.138,3.138,0,1,0,3.148,3.138A3.089,3.089,0,0,0,1659.8,686.484Zm0,5.033a1.907,1.907,0,1,1,1.77-1.9A1.816,1.816,0,0,1,1659.8,691.518Zm-8.172-4.075v1.328h3.188a2.8,2.8,0,0,1-.721,1.672,3.253,3.253,0,0,1-2.46.975,3.542,3.542,0,0,1,0-7.083,3.4,3.4,0,0,1,2.4.951l.942-.942a4.632,4.632,0,0,0-3.335-1.345,4.87,4.87,0,1,0,0,9.739,4.458,4.458,0,0,0,3.4-1.369,4.408,4.408,0,0,0,1.155-3.115,4.106,4.106,0,0,0-.074-.828h-4.5S1651.628,687.443,1651.628,687.443Zm33.425,1.034a2.916,2.916,0,0,0-2.688-2,2.982,2.982,0,0,0-2.958,3.138,3.068,3.068,0,0,0,3.115,3.138,3.115,3.115,0,0,0,2.614-1.393l-1.065-.714a1.785,1.785,0,0,1-1.542.868,1.6,1.6,0,0,1-1.525-.951l4.2-1.738S1685.053,688.477,1685.053,688.477Zm-4.279,1.049a1.723,1.723,0,0,1,1.639-1.829,1.21,1.21,0,0,1,1.165.664Zm-3.409,3.041h1.378v-9.22h-1.378Zm-2.263-5.385h-.05a2.173,2.173,0,0,0-1.656-.7,3.138,3.138,0,0,0,0,6.271,2.168,2.168,0,0,0,1.656-.714h.05v.451c0,1.2-.64,1.843-1.672,1.843a1.74,1.74,0,0,1-1.582-1.115l-1.2.5a3,3,0,0,0,2.778,1.853c1.615,0,2.984-.951,2.984-3.271v-5.631h-1.3v.517Zm-1.582,4.336a1.908,1.908,0,0,1,0-3.8,1.764,1.764,0,0,1,1.672,1.91A1.742,1.742,0,0,1,1673.52,691.518Zm17.984-8.172h-3.295v9.22h1.378v-3.492h1.919a2.869,2.869,0,1,0,0-5.729Zm.041,4.441h-1.959v-3.164h1.959a1.582,1.582,0,1,1,0,3.164Zm8.508-1.319a2.6,2.6,0,0,0-2.46,1.409l1.222.508a1.31,1.31,0,0,1,1.255-.681,1.331,1.331,0,0,1,1.452,1.188v.1a3.087,3.087,0,0,0-1.435-.353c-1.319,0-2.656.721-2.656,2.073a2.131,2.131,0,0,0,2.287,2.033,1.94,1.94,0,0,0,1.753-.9h.05v.714h1.328v-3.532A2.527,2.527,0,0,0,1700.054,686.468Zm-.173,5.05c-.451,0-1.082-.221-1.082-.787,0-.714.787-.984,1.459-.984a2.392,2.392,0,0,1,1.255.311A1.659,1.659,0,0,1,1699.881,691.518Zm7.813-4.853-1.582,4h-.05l-1.639-4h-1.483l2.46,5.591-1.4,3.107h1.435l3.784-8.7Zm-12.4,5.9h1.378v-9.22h-1.378Z" transform="translate(-1616.406 -670.435)" fill="#fff" fill-rule="evenodd"/>
  <path id="Path_5" data-name="Path 5" d="M400.437,299.45a1.5,1.5,0,0,0-.337,1.041V316.8a1.422,1.422,0,0,0,.344,1.032l.057.05,9.139-9.139v-.2l-9.147-9.141Z" transform="translate(-392.74 -293.892)" fill-rule="evenodd" fill="url(#linear-gradient)"/>
  <path id="Path_6" data-name="Path 6" d="M921.348,636.81l-3.048-3.048v-.213l3.048-3.048.066.041,3.606,2.049a1.12,1.12,0,0,1,0,2.13l-3.606,2.049Z" transform="translate(-901.406 -618.901)" fill-rule="evenodd" fill="url(#linear-gradient-2)"/>
  <path id="Path_7" data-name="Path 7" d="M430.711,805.115,427.6,802l-9.2,9.2a1.207,1.207,0,0,0,1.532.05l10.779-6.132" transform="translate(-410.703 -787.246)" fill-rule="evenodd" fill="url(#linear-gradient-3)"/>
  <path id="Path_8" data-name="Path 8" d="M430.711,292.85l-10.779-6.122a1.2,1.2,0,0,0-1.532.05l9.2,9.187Z" transform="translate(-410.703 -281.21)" fill-rule="evenodd" fill="url(#linear-gradient-4)"/>
  <path id="Path_9" data-name="Path 9" d="M431.037,967.7l-10.7,6.082a1.215,1.215,0,0,1-1.475.007l-.057.057.057.05a1.218,1.218,0,0,0,1.475-.007l10.779-6.122Z" transform="translate(-411.095 -949.898)" fill-rule="evenodd" opacity="0.2"/>
  <path id="Path_10" data-name="Path 10" d="M1087.181,802.958l-3.681,2.09.066.066,3.606-2.049a1.292,1.292,0,0,0,.771-1.065A1.328,1.328,0,0,1,1087.181,802.958Z" transform="translate(-1063.567 -787.246)" fill-rule="evenodd" opacity="0.12"/>
  <path id="Path_11" data-name="Path 11" d="M401.969,286.663l14.384,8.172a1.356,1.356,0,0,1,.771.958,1.292,1.292,0,0,0-.771-1.065l-14.384-8.172c-1.032-.591-1.869-.1-1.869,1.082v.107C400.1,286.563,400.937,286.079,401.969,286.663Z" transform="translate(-392.74 -281.039)" fill="#fff" fill-rule="evenodd" opacity="0.25"/>
</svg>
